<svg width="147" height="93" viewBox="0 0 147 93" fill="none" xmlns="http://www.w3.org/2000/svg">
<path d="M19.064 38.576C24.92 38.576 29.768 36.464 32.936 32.576L27.944 27.968C25.688 30.608 22.856 31.952 19.496 31.952C13.208 31.952 8.744 27.536 8.744 21.2C8.744 14.864 13.208 10.448 19.496 10.448C22.856 10.448 25.688 11.792 27.944 14.384L32.936 9.776C29.768 5.936 24.92 3.824 19.112 3.824C8.648 3.824 0.872 11.072 0.872 21.2C0.872 31.328 8.648 38.576 19.064 38.576ZM41.4031 8.576C44.1871 8.576 46.0591 6.752 46.0591 4.256C46.0591 1.952 44.1871 0.223997 41.4031 0.223997C38.6191 0.223997 36.7471 2.048 36.7471 4.4C36.7471 6.752 38.6191 8.576 41.4031 8.576ZM37.6591 38H45.1471V12.176H37.6591V38ZM64.5766 38.384C70.0006 38.384 74.2726 35.984 76.1446 31.856L70.3366 28.688C68.9446 31.184 66.8806 32.24 64.5286 32.24C60.7366 32.24 57.7606 29.6 57.7606 25.088C57.7606 20.576 60.7366 17.936 64.5286 17.936C66.8806 17.936 68.9446 19.04 70.3366 21.488L76.1446 18.368C74.2726 14.144 70.0006 11.792 64.5766 11.792C56.1766 11.792 50.1766 17.312 50.1766 25.088C50.1766 32.864 56.1766 38.384 64.5766 38.384ZM80.2685 38H87.7565V2.384H80.2685V38ZM106.994 38.384C115.202 38.384 121.154 32.864 121.154 25.088C121.154 17.312 115.202 11.792 106.994 11.792C98.786 11.792 92.786 17.312 92.786 25.088C92.786 32.864 98.786 38.384 106.994 38.384ZM106.994 32.24C103.25 32.24 100.37 29.552 100.37 25.088C100.37 20.624 103.25 17.936 106.994 17.936C110.738 17.936 113.57 20.624 113.57 25.088C113.57 29.552 110.738 32.24 106.994 32.24ZM19.064 92.288C24.008 92.288 28.424 90.608 31.4 87.344L29.144 85.088C26.408 87.92 23.048 89.12 19.208 89.12C11.096 89.12 5 83.168 5 75.2C5 67.232 11.096 61.28 19.208 61.28C23.048 61.28 26.408 62.48 29.144 65.264L31.4 63.008C28.424 59.744 24.008 58.112 19.112 58.112C8.984 58.112 1.496 65.36 1.496 75.2C1.496 85.04 8.984 92.288 19.064 92.288ZM47.447 92.24C54.839 92.24 60.263 86.864 60.263 79.376C60.263 71.888 54.839 66.56 47.447 66.56C40.055 66.56 34.583 71.888 34.583 79.376C34.583 86.864 40.055 92.24 47.447 92.24ZM47.447 89.216C42.071 89.216 38.039 85.28 38.039 79.376C38.039 73.472 42.071 69.536 47.447 69.536C52.823 69.536 56.807 73.472 56.807 79.376C56.807 85.28 52.823 89.216 47.447 89.216ZM67.2208 92H70.6288V56.384H67.2208V92ZM80.1114 92H83.5194V56.384H80.1114V92ZM101.834 66.56C97.85 66.56 94.106 67.808 91.562 69.968L93.098 72.512C95.162 70.688 98.234 69.536 101.498 69.536C106.202 69.536 108.65 71.888 108.65 76.208V77.744H100.634C93.386 77.744 90.89 81.008 90.89 84.896C90.89 89.264 94.394 92.24 100.106 92.24C104.282 92.24 107.258 90.656 108.794 88.064V92H112.058V76.352C112.058 69.824 108.362 66.56 101.834 66.56ZM100.634 89.552C96.602 89.552 94.25 87.728 94.25 84.8C94.25 82.208 95.834 80.288 100.73 80.288H108.65V84.416C107.306 87.728 104.474 89.552 100.634 89.552ZM134.323 66.56C130.291 66.56 126.835 68.288 124.723 71.552V56.384H121.315V92H124.579V87.008C126.643 90.416 130.147 92.24 134.323 92.24C141.523 92.24 146.899 87.008 146.899 79.376C146.899 71.744 141.523 66.56 134.323 66.56ZM134.083 89.216C128.707 89.216 124.675 85.28 124.675 79.376C124.675 73.472 128.707 69.536 134.083 69.536C139.411 69.536 143.491 73.472 143.491 79.376C143.491 85.28 139.411 89.216 134.083 89.216Z" fill="#2D2D2D"/>
</svg>
